<?xml version="1.0" encoding="UTF-8" standalone="no"?>
<svg
   xmlns:dc="http://purl.org/dc/elements/1.1/"
   xmlns:cc="http://creativecommons.org/ns#"
   xmlns:rdf="http://www.w3.org/1999/02/22-rdf-syntax-ns#"
   xmlns:svg="http://www.w3.org/2000/svg"
   xmlns="http://www.w3.org/2000/svg"
   xmlns:sodipodi="http://sodipodi.sourceforge.net/DTD/sodipodi-0.dtd"
   xmlns:inkscape="http://www.inkscape.org/namespaces/inkscape"
   sodipodi:docname="CalendarNode.svg"
   inkscape:version="1.0 (4035a4fb49, 2020-05-01)"
   id="svg16"
   version="1.1"
   viewBox="0 0 4.2333333 4.2333333"
   height="16"
   width="16">
  <defs
     id="defs10" />
  <sodipodi:namedview
     inkscape:window-maximized="1"
     inkscape:window-y="-8"
     inkscape:window-x="1912"
     inkscape:window-height="1017"
     inkscape:window-width="1920"
     inkscape:snap-grids="true"
     units="px"
     showgrid="true"
     inkscape:document-rotation="0"
     inkscape:current-layer="layer1"
     inkscape:document-units="px"
     inkscape:cy="7.6330388"
     inkscape:cx="0.34118612"
     inkscape:zoom="31.678384"
     inkscape:pageshadow="2"
     inkscape:pageopacity="0.0"
     borderopacity="1.0"
     bordercolor="#666666"
     pagecolor="#ffffff"
     id="base">
    <inkscape:grid
       id="grid18"
       type="xygrid" />
  </sodipodi:namedview>
  <metadata
     id="metadata13">
    <rdf:RDF>
      <cc:Work
         rdf:about="">
        <dc:format>image/svg+xml</dc:format>
        <dc:type
           rdf:resource="http://purl.org/dc/dcmitype/StillImage" />
        <dc:title></dc:title>
      </cc:Work>
    </rdf:RDF>
  </metadata>
  <g
     id="layer1"
     inkscape:groupmode="layer"
     inkscape:label="Layer 1">
    <rect
       style="fill:#008000;stroke-width:0.274571"
       y="0.26458332"
       x="0.26458332"
       height="0.79374999"
       width="3.7041667"
       id="rect20" />
    <rect
       y="1.0583333"
       x="0.52916664"
       height="2.9104166"
       width="0.26458332"
       id="rect33"
       style="fill:#008000;stroke-width:0.264583" />
    <rect
       y="1.0583333"
       x="3.4395833"
       height="2.9104166"
       width="0.26458332"
       id="rect35"
       style="fill:#008000;stroke-width:0.264583" />
    <rect
       y="3.7041667"
       x="0.79374999"
       height="0.26458332"
       width="2.6458333"
       id="rect45"
       style="fill:#008000;stroke-width:0.264583" />
    <rect
       y="2.9104166"
       x="0.79374999"
       height="0.26458332"
       width="2.6458333"
       id="rect47"
       style="fill:#008000;stroke-width:0.264583" />
    <rect
       y="2.1166666"
       x="0.79374999"
       height="0.26458332"
       width="2.6458333"
       id="rect49"
       style="fill:#008000;stroke-width:0.264583" />
    <rect
       y="1.3229166"
       x="0.79374999"
       height="0.26458332"
       width="2.6458333"
       id="rect51"
       style="fill:#008000;stroke-width:0.264583" />
    <rect
       y="1.0583333"
       x="1.3229166"
       height="2.6458333"
       width="0.26458332"
       id="rect60"
       style="fill:#008000;stroke-width:0.264583" />
    <rect
       y="1.0583333"
       x="2.3812499"
       height="2.6458333"
       width="0.26458332"
       id="rect62"
       style="fill:#ffffff;stroke-width:0.264583" />
    <path
       transform="scale(0.26458333)"
       id="path64"
       d="M 5.0131416,12.983691 V 11.989322 H 4.0187727 3.0244038 V 11.500029 11.010736 H 4.0187727 5.0131416 V 10.000584 8.9904313 H 4.0187727 3.0244038 V 8.5011387 8.011846 H 4.0187727 5.0131416 V 7.0016935 5.9915409 H 4.0187727 3.0244038 V 5.5022483 5.0129557 H 4.0187727 5.0131416 V 4.5078794 4.0028031 H 5.5024343 5.9917269 V 4.5078794 5.0129557 H 7.4911721 8.9906173 V 5.5022483 5.9915409 H 7.4911721 5.9917269 V 7.0016935 8.011846 H 7.4911721 8.9906173 V 8.5011387 8.9904313 H 7.4911721 5.9917269 v 1.0101527 1.010152 h 1.4994452 1.4994452 v 0.489293 0.489293 H 7.4911721 5.9917269 v 0.994369 0.994369 H 5.5024343 5.0131416 Z"
       style="fill:#ffffff;stroke-width:0.0315673" />
    <path
       transform="scale(0.26458333)"
       id="path66"
       d="M 3.0244038,14.498919 V 14.009627 H 8.012032 12.99966 V 12.999474 11.989322 H 11.500215 10.00077 v -0.489293 -0.489293 h 1.499445 1.499445 V 10.000584 8.9904313 H 11.500215 10.00077 V 8.5011387 8.011846 h 1.499445 1.499445 V 7.0016935 5.9915409 H 11.500215 10.00077 V 5.5022483 5.0129557 h 1.499445 1.499445 V 4.5078794 4.0028031 h 0.489293 0.489293 V 9.4955076 14.988212 H 8.5013247 3.0244038 Z"
       style="fill:#ffffff;stroke-width:0.0315673" />
    <path
       transform="scale(0.26458333)"
       id="path68"
       d="M 1.0040987,2.4875743 V 1.0039127 H 7.9962484 14.988398 V 2.4875743 3.9712358 H 7.9962484 1.0040987 Z"
       style="fill:#ffffff;stroke-width:0.0315673" />
    <path
       transform="scale(0.26458333)"
       id="path70"
       d="M 2.0142513,9.4955076 V 4.0028031 H 2.5035439 2.9928366 V 9.4955076 14.988212 H 2.5035439 2.0142513 Z"
       style="fill:#ffffff;stroke-width:0.0315673" />
  </g>
</svg>
